<?xml version="1.0" encoding="UTF-8"?><svg xmlns="http://www.w3.org/2000/svg" xmlns:xlink="http://www.w3.org/1999/xlink" fill-opacity="1" color-rendering="auto" color-interpolation="auto" text-rendering="auto" stroke="black" stroke-linecap="square" width="1016" stroke-miterlimit="10" shape-rendering="auto" stroke-opacity="1" fill="black" stroke-dasharray="none" font-weight="normal" stroke-width="1" height="1316" font-family="'Dialog'" font-style="normal" stroke-linejoin="miter" font-size="12px" stroke-dashoffset="0" image-rendering="auto">
  <!--Generated by ySVG 2.6-->
  <defs id="genericDefs"/>
  <g>
    <defs id="defs1">
      <clipPath clipPathUnits="userSpaceOnUse" id="clipPath1">
        <path d="M0 0 L1016 0 L1016 1316 L0 1316 L0 0 Z"/>
      </clipPath>
      <clipPath clipPathUnits="userSpaceOnUse" id="clipPath2">
        <path d="M-143 21 L873 21 L873 1337 L-143 1337 L-143 21 Z"/>
      </clipPath>
    </defs>
    <g fill="white" text-rendering="geometricPrecision" shape-rendering="geometricPrecision" transform="translate(143,-21)" stroke="white">
      <rect x="-143" width="1016" height="1316" y="21" clip-path="url(#clipPath2)" stroke="none"/>
    </g>
    <g text-rendering="geometricPrecision" stroke-miterlimit="1.45" font-size="13px" shape-rendering="geometricPrecision" transform="matrix(1,0,0,1,143,-21)" stroke-linecap="butt">
      <text x="215.3834" xml:space="preserve" y="227.191" clip-path="url(#clipPath2)" stroke="none">Объединить P, R и S</text>
      <text x="219.953" xml:space="preserve" y="244.897" clip-path="url(#clipPath2)" stroke="none">в единый контекст</text>
      <rect fill="none" x="130" width="300" height="62" y="200" clip-path="url(#clipPath2)"/>
      <text x="221.7664" xml:space="preserve" y="527.191" clip-path="url(#clipPath2)" stroke="none">Выбрать правила,</text>
      <text x="230.6064" xml:space="preserve" y="544.897" clip-path="url(#clipPath2)" stroke="none">связанные с d_i</text>
      <rect fill="none" x="130" width="300" height="62" y="500" clip-path="url(#clipPath2)"/>
      <text x="266.311" xml:space="preserve" y="632.338" clip-path="url(#clipPath2)" stroke="none">Есть</text>
      <text x="237.243" xml:space="preserve" y="650.044" clip-path="url(#clipPath2)" stroke="none">сработавшие</text>
      <text x="250.152" xml:space="preserve" y="667.75" clip-path="url(#clipPath2)" stroke="none">правила?</text>
      <path fill="none" d="M175 645 L280 600 L385 645 L280 690 Z" clip-path="url(#clipPath2)" fill-rule="evenodd"/>
      <text x="-29.4299" xml:space="preserve" y="734.8508" clip-path="url(#clipPath2)" stroke="none">Вычислить силу</text>
      <text x="-47.9549" xml:space="preserve" y="752.5568" clip-path="url(#clipPath2)" stroke="none">срабатывания alpha_r</text>
      <rect fill="none" x="-127.9108" width="300" height="62" y="707.6598" clip-path="url(#clipPath2)"/>
      <text x="-49.6124" xml:space="preserve" y="833.8613" clip-path="url(#clipPath2)" stroke="none">Преобразовать термы</text>
      <text x="-46.4144" xml:space="preserve" y="851.5674" clip-path="url(#clipPath2)" stroke="none">влияния правил в k_r</text>
      <rect fill="none" x="-127.9108" width="300" height="62" y="806.6703" clip-path="url(#clipPath2)"/>
      <text x="-60.1749" xml:space="preserve" y="932.8719" clip-path="url(#clipPath2)" stroke="none">Агрегировать результаты</text>
      <text x="-31.0874" xml:space="preserve" y="950.5779" clip-path="url(#clipPath2)" stroke="none">и вычислить m_i</text>
      <rect fill="none" x="-127.9108" width="300" height="62" y="905.6809" clip-path="url(#clipPath2)"/>
      <text x="526.5906" xml:space="preserve" y="884.3593" clip-path="url(#clipPath2)" stroke="none">Принять</text>
      <text x="523.6136" xml:space="preserve" y="902.0653" clip-path="url(#clipPath2)" stroke="none">m_i = 1.00</text>
      <rect fill="none" x="434.2481" width="240" height="62" y="857.1683" clip-path="url(#clipPath2)"/>
      <text x="-20.7003" xml:space="preserve" y="1031.8824" clip-path="url(#clipPath2)" stroke="none">Передать m_i</text>
      <text x="-52.3554" xml:space="preserve" y="1049.5885" clip-path="url(#clipPath2)" stroke="none">для пересчета веса w'_i</text>
      <rect fill="none" x="-127.9108" width="300" height="62" y="1004.6915" clip-path="url(#clipPath2)"/>
    </g>
    <g text-rendering="geometricPrecision" stroke-miterlimit="1.45" shape-rendering="geometricPrecision" transform="matrix(1,0,0,1,143,-21)" stroke-linecap="butt">
      <path fill="none" d="M130 100 L430 100 L430 162 L130 162 Z" clip-path="url(#clipPath2)"/>
      <text x="254.3871" font-size="14px" y="136.432" clip-path="url(#clipPath2)" font-family="sans-serif" stroke="none" xml:space="preserve">Начало</text>
    </g>
    <g text-rendering="geometricPrecision" stroke-miterlimit="1.45" shape-rendering="geometricPrecision" transform="matrix(1,0,0,1,143,-21)" stroke-linecap="butt">
      <rect fill="none" x="130" width="300" height="62" y="300" clip-path="url(#clipPath2)"/>
      <path fill="none" d="M140 300 L140 362 M420 300 L420 362 M140 300 Z" clip-path="url(#clipPath2)"/>
      <text x="141.3025" font-size="14px" y="336.432" clip-path="url(#clipPath2)" font-family="sans-serif" stroke="none" xml:space="preserve">Фаззифицировать численные признаки</text>
    </g>
    <g text-rendering="geometricPrecision" stroke-miterlimit="1.45" shape-rendering="geometricPrecision" transform="matrix(1,0,0,1,143,-21)" stroke-linecap="butt">
      <path fill="none" d="M140 400 L420 400 L430 410 L430 462 L130 462 L130 410 Z" clip-path="url(#clipPath2)"/>
      <text x="188.4193" font-size="14px" y="426.898" clip-path="url(#clipPath2)" font-family="sans-serif" stroke="none" xml:space="preserve">Цикл по активированным </text>
      <text x="224.5812" font-size="14px" y="445.9659" clip-path="url(#clipPath2)" font-family="sans-serif" stroke="none" xml:space="preserve">д-сценариям d_i</text>
    </g>
    <g text-rendering="geometricPrecision" stroke-miterlimit="1.45" shape-rendering="geometricPrecision" transform="matrix(1,0,0,1,143,-21)" stroke-linecap="butt">
      <path fill="none" d="M130 1167.4589 L430 1167.4589 L430 1219.4589 L420 1229.4589 L140 1229.4589 L130 1219.4589 Z" clip-path="url(#clipPath2)"/>
      <text x="178.8933" xml:space="preserve" y="1194.9429" clip-path="url(#clipPath2)" font-family="sans-serif" stroke="none">Конец цикла по активированным </text>
      <text x="232.4977" xml:space="preserve" y="1211.287" clip-path="url(#clipPath2)" font-family="sans-serif" stroke="none">д-сценариям d_i</text>
    </g>
    <g text-rendering="geometricPrecision" stroke-miterlimit="1.45" shape-rendering="geometricPrecision" transform="matrix(1,0,0,1,143,-21)" stroke-linecap="butt">
      <path fill="none" d="M130 1259.4589 L430 1259.4589 L430 1321.4589 L130 1321.4589 Z" clip-path="url(#clipPath2)"/>
      <text x="258.6081" font-size="14px" y="1295.8909" clip-path="url(#clipPath2)" font-family="sans-serif" stroke="none" xml:space="preserve">Конец</text>
    </g>
    <g text-rendering="geometricPrecision" stroke-miterlimit="1.45" shape-rendering="geometricPrecision" transform="matrix(1,0,0,1,143,-21)" stroke-linecap="butt">
      <path fill="none" d="M547.7733 36.9586 L503.4861 36.9586 L503.4861 225.0414 L547.7733 225.0414" clip-path="url(#clipPath2)"/>
      <text x="509.4861" font-size="14px" y="57.9246" clip-path="url(#clipPath2)" font-family="sans-serif" stroke="none" xml:space="preserve">Вход:</text>
      <text x="509.4861" font-size="14px" y="76.9925" clip-path="url(#clipPath2)" font-family="sans-serif" stroke="none" xml:space="preserve">A -- множество активированных д-сценариев</text>
      <text x="509.4861" font-size="14px" y="96.0604" clip-path="url(#clipPath2)" font-family="sans-serif" stroke="none" xml:space="preserve">P -- множесто термов персональных черт робота</text>
      <text x="509.4861" font-size="14px" y="115.1283" clip-path="url(#clipPath2)" font-family="sans-serif" stroke="none" xml:space="preserve">R -- множество параметров отношения</text>
      <text x="509.4861" font-size="14px" y="134.1962" clip-path="url(#clipPath2)" font-family="sans-serif" stroke="none" xml:space="preserve">робота к собеседнику</text>
      <text x="509.4861" font-size="14px" y="153.2641" clip-path="url(#clipPath2)" font-family="sans-serif" stroke="none" xml:space="preserve">S -- множество параметров ситуации</text>
      <text x="509.4861" font-size="14px" y="172.3321" clip-path="url(#clipPath2)" font-family="sans-serif" stroke="none" xml:space="preserve">Выход:</text>
      <text x="509.4861" font-size="14px" y="191.4" clip-path="url(#clipPath2)" font-family="sans-serif" stroke="none" xml:space="preserve">Коэффициент  перевзвешивания m_i</text>
      <text x="509.4861" font-size="14px" y="210.4679" clip-path="url(#clipPath2)" font-family="sans-serif" stroke="none" xml:space="preserve">для каждого активированного д-сценария</text>
    </g>
    <g text-rendering="geometricPrecision" stroke-miterlimit="1.45" shape-rendering="geometricPrecision" transform="matrix(1,0,0,1,143,-21)" stroke-linecap="butt">
      <path fill="none" d="M280 562 L280 591.9741" clip-path="url(#clipPath2)"/>
      <path d="M280 599.9741 L285 587.9741 L280 590.9741 L275 587.9741 Z" clip-path="url(#clipPath2)" stroke="none"/>
      <path fill="none" d="M175.0034 645 L22.0892 645 L22.0892 699.6598" clip-path="url(#clipPath2)"/>
      <path d="M22.0892 707.6598 L27.0892 695.6598 L22.0892 698.6598 L17.0892 695.6598 Z" clip-path="url(#clipPath2)" stroke="none"/>
      <text x="83.7765" xml:space="preserve" y="639.8192" clip-path="url(#clipPath2)" font-family="sans-serif" stroke="none">Да</text>
      <path fill="none" d="M22.0892 769.6598 L22.0892 798.6703" clip-path="url(#clipPath2)"/>
      <path d="M22.0892 806.6703 L27.0892 794.6703 L22.0892 797.6703 L17.0892 794.6703 Z" clip-path="url(#clipPath2)" stroke="none"/>
      <path fill="none" d="M22.0892 868.6703 L22.0892 897.6809" clip-path="url(#clipPath2)"/>
      <path d="M22.0892 905.6809 L27.0892 893.6809 L22.0892 896.6809 L17.0892 893.6809 Z" clip-path="url(#clipPath2)" stroke="none"/>
      <path fill="none" d="M385 645 L554.2481 645 L554.2481 734.791 L554.2481 849.1384" clip-path="url(#clipPath2)"/>
      <path d="M554.2481 857.1384 L559.2481 845.1384 L554.2481 848.1384 L549.2481 845.1384 Z" clip-path="url(#clipPath2)" stroke="none"/>
      <path fill="none" d="M22.0892 967.6809 L22.0892 996.6915" clip-path="url(#clipPath2)"/>
      <path d="M22.0892 1004.6915 L27.0892 992.6915 L22.0892 995.6915 L17.0892 992.6915 Z" clip-path="url(#clipPath2)" stroke="none"/>
      <path fill="none" d="M280 162.0059 L280 192" clip-path="url(#clipPath2)"/>
      <path d="M280 200 L285 188 L280 191 L275 188 Z" clip-path="url(#clipPath2)" stroke="none"/>
      <path fill="none" d="M280 262 L280 291.9702" clip-path="url(#clipPath2)"/>
      <path d="M280 299.9702 L285 287.9702 L280 290.9702 L275 287.9702 Z" clip-path="url(#clipPath2)" stroke="none"/>
      <path fill="none" d="M280 362.0059 L280 391.9728" clip-path="url(#clipPath2)"/>
      <path d="M280 399.9728 L285 387.9728 L280 390.9728 L275 387.9728 Z" clip-path="url(#clipPath2)" stroke="none"/>
      <path fill="none" d="M280 462.0059 L280 492" clip-path="url(#clipPath2)"/>
      <path d="M280 500 L285 488 L280 491 L275 488 Z" clip-path="url(#clipPath2)" stroke="none"/>
      <path fill="none" d="M554.2481 919.1683 L554.2481 1127.5398 L280 1127.5398 L280 1159.4286" clip-path="url(#clipPath2)"/>
      <path d="M280 1167.4286 L285 1155.4286 L280 1158.4286 L275 1155.4286 Z" clip-path="url(#clipPath2)" stroke="none"/>
      <path fill="none" d="M22.0892 1066.6915 L22.0892 1127.5398 L280 1127.5398 L280 1159.4664" clip-path="url(#clipPath2)"/>
      <path d="M280 1167.4664 L285 1155.4664 L280 1158.4664 L275 1155.4664 Z" clip-path="url(#clipPath2)" stroke="none"/>
      <path fill="none" d="M280 1229.4999 L280 1251.4734" clip-path="url(#clipPath2)"/>
      <path d="M280 1259.4734 L285 1247.4734 L280 1250.4734 L275 1247.4734 Z" clip-path="url(#clipPath2)" stroke="none"/>
      <path fill="none" stroke-dasharray="6,2" d="M503.4497 131 L429.9939 131" clip-path="url(#clipPath2)"/>
    </g>
  </g>
</svg>
