<svg xmlns="http://www.w3.org/2000/svg" width="860" height="1052" viewBox="0 0 860 1052">
<rect x="0" y="0" width="860" height="1052" fill="#f7f8fb"/>
<rect x="34" y="18" width="792" height="1016" rx="18" fill="#ffffff"/>
<text x="44" y="34" font-family="Arial, sans-serif" font-size="20" font-weight="700" fill="#172033">Агрегированные данные опроса респондентов</text>
<text x="44" y="58" font-family="Arial, sans-serif" font-size="12" fill="#667085">Доля респондентов, выбравших вариант реакции, порождённой описанными в ходе исследования правилами</text>
<rect x="44" y="70" width="18" height="10" rx="5" fill="#bf4d45"/>
<text x="68" y="79" font-family="Arial, sans-serif" font-size="11" fill="#475467">&lt;25%</text>
<rect x="134" y="70" width="18" height="10" rx="5" fill="#d49436"/>
<text x="158" y="79" font-family="Arial, sans-serif" font-size="11" fill="#475467">25-49%</text>
<rect x="224" y="70" width="18" height="10" rx="5" fill="#72a84a"/>
<text x="248" y="79" font-family="Arial, sans-serif" font-size="11" fill="#475467">50-74%</text>
<rect x="314" y="70" width="18" height="10" rx="5" fill="#1f7a4d"/>
<text x="338" y="79" font-family="Arial, sans-serif" font-size="11" fill="#475467">75-100%</text>
<rect x="404" y="70" width="18" height="10" rx="5" fill="#d5dbe3"/>
<text x="428" y="79" font-family="Arial, sans-serif" font-size="11" fill="#475467">н/д</text>
<text x="44" y="112" font-family="Arial, sans-serif" font-size="12" font-weight="700" fill="#344054">Грань</text>
<text x="508.0" y="112" font-family="Arial, sans-serif" font-size="12" font-weight="700" fill="#344054" text-anchor="middle">Низкая</text>
<text x="624.0" y="112" font-family="Arial, sans-serif" font-size="12" font-weight="700" fill="#344054" text-anchor="middle">Средняя</text>
<text x="740.0" y="112" font-family="Arial, sans-serif" font-size="12" font-weight="700" fill="#344054" text-anchor="middle">Высокая</text>
<rect x="32" y="114" width="764" height="30" rx="7" fill="#f9fafc"/>
<text x="44" y="132" font-family="Arial, sans-serif" font-size="12" fill="#263244">1. дружелюбие</text>
<rect x="450" y="114" width="104" height="24" rx="8" fill="#72a84a"/>
<text x="502.0" y="130" font-family="Arial, sans-serif" font-size="12" font-weight="700" fill="#ffffff" text-anchor="middle">71%</text>
<rect x="566" y="114" width="104" height="24" rx="8" fill="#bf4d45"/>
<text x="618.0" y="130" font-family="Arial, sans-serif" font-size="12" font-weight="700" fill="#ffffff" text-anchor="middle">14%</text>
<rect x="682" y="114" width="104" height="24" rx="8" fill="#bf4d45"/>
<text x="734.0" y="130" font-family="Arial, sans-serif" font-size="12" font-weight="700" fill="#ffffff" text-anchor="middle">7%</text>
<text x="44" y="162" font-family="Arial, sans-serif" font-size="12" fill="#263244">2. общительность</text>
<rect x="450" y="144" width="104" height="24" rx="8" fill="#1f7a4d"/>
<text x="502.0" y="160" font-family="Arial, sans-serif" font-size="12" font-weight="700" fill="#ffffff" text-anchor="middle">79%</text>
<rect x="566" y="144" width="104" height="24" rx="8" fill="#d49436"/>
<text x="618.0" y="160" font-family="Arial, sans-serif" font-size="12" font-weight="700" fill="#2f2416" text-anchor="middle">29%</text>
<rect x="682" y="144" width="104" height="24" rx="8" fill="#bf4d45"/>
<text x="734.0" y="160" font-family="Arial, sans-serif" font-size="12" font-weight="700" fill="#ffffff" text-anchor="middle">0%</text>
<rect x="32" y="174" width="764" height="30" rx="7" fill="#f9fafc"/>
<text x="44" y="192" font-family="Arial, sans-serif" font-size="12" fill="#263244">3. настойчивость</text>
<rect x="450" y="174" width="104" height="24" rx="8" fill="#bf4d45"/>
<text x="502.0" y="190" font-family="Arial, sans-serif" font-size="12" font-weight="700" fill="#ffffff" text-anchor="middle">14%</text>
<rect x="566" y="174" width="104" height="24" rx="8" fill="#72a84a"/>
<text x="618.0" y="190" font-family="Arial, sans-serif" font-size="12" font-weight="700" fill="#ffffff" text-anchor="middle">71%</text>
<rect x="682" y="174" width="104" height="24" rx="8" fill="#bf4d45"/>
<text x="734.0" y="190" font-family="Arial, sans-serif" font-size="12" font-weight="700" fill="#ffffff" text-anchor="middle">21%</text>
<text x="44" y="222" font-family="Arial, sans-serif" font-size="12" fill="#263244">4. уровень активности</text>
<rect x="450" y="204" width="104" height="24" rx="8" fill="#72a84a"/>
<text x="502.0" y="220" font-family="Arial, sans-serif" font-size="12" font-weight="700" fill="#ffffff" text-anchor="middle">71%</text>
<rect x="566" y="204" width="104" height="24" rx="8" fill="#bf4d45"/>
<text x="618.0" y="220" font-family="Arial, sans-serif" font-size="12" font-weight="700" fill="#ffffff" text-anchor="middle">21%</text>
<rect x="682" y="204" width="104" height="24" rx="8" fill="#bf4d45"/>
<text x="734.0" y="220" font-family="Arial, sans-serif" font-size="12" font-weight="700" fill="#ffffff" text-anchor="middle">0%</text>
<rect x="32" y="234" width="764" height="30" rx="7" fill="#f9fafc"/>
<text x="44" y="252" font-family="Arial, sans-serif" font-size="12" fill="#263244">5. поиск острых ощущений</text>
<rect x="450" y="234" width="104" height="24" rx="8" fill="#bf4d45"/>
<text x="502.0" y="250" font-family="Arial, sans-serif" font-size="12" font-weight="700" fill="#ffffff" text-anchor="middle">0%</text>
<rect x="566" y="234" width="104" height="24" rx="8" fill="#bf4d45"/>
<text x="618.0" y="250" font-family="Arial, sans-serif" font-size="12" font-weight="700" fill="#ffffff" text-anchor="middle">21%</text>
<rect x="682" y="234" width="104" height="24" rx="8" fill="#72a84a"/>
<text x="734.0" y="250" font-family="Arial, sans-serif" font-size="12" font-weight="700" fill="#ffffff" text-anchor="middle">71%</text>
<text x="44" y="282" font-family="Arial, sans-serif" font-size="12" fill="#263244">6. жизнерадостность</text>
<rect x="450" y="264" width="104" height="24" rx="8" fill="#bf4d45"/>
<text x="502.0" y="280" font-family="Arial, sans-serif" font-size="12" font-weight="700" fill="#ffffff" text-anchor="middle">0%</text>
<rect x="566" y="264" width="104" height="24" rx="8" fill="#bf4d45"/>
<text x="618.0" y="280" font-family="Arial, sans-serif" font-size="12" font-weight="700" fill="#ffffff" text-anchor="middle">14%</text>
<rect x="682" y="264" width="104" height="24" rx="8" fill="#1f7a4d"/>
<text x="734.0" y="280" font-family="Arial, sans-serif" font-size="12" font-weight="700" fill="#ffffff" text-anchor="middle">93%</text>
<rect x="32" y="294" width="764" height="30" rx="7" fill="#f9fafc"/>
<text x="44" y="312" font-family="Arial, sans-serif" font-size="12" fill="#263244">7. доверчивость</text>
<rect x="450" y="294" width="104" height="24" rx="8" fill="#1f7a4d"/>
<text x="502.0" y="310" font-family="Arial, sans-serif" font-size="12" font-weight="700" fill="#ffffff" text-anchor="middle">86%</text>
<rect x="566" y="294" width="104" height="24" rx="8" fill="#bf4d45"/>
<text x="618.0" y="310" font-family="Arial, sans-serif" font-size="12" font-weight="700" fill="#ffffff" text-anchor="middle">0%</text>
<rect x="682" y="294" width="104" height="24" rx="8" fill="#bf4d45"/>
<text x="734.0" y="310" font-family="Arial, sans-serif" font-size="12" font-weight="700" fill="#ffffff" text-anchor="middle">0%</text>
<text x="44" y="342" font-family="Arial, sans-serif" font-size="12" fill="#263244">8. моральность</text>
<rect x="450" y="324" width="104" height="24" rx="8" fill="#d49436"/>
<text x="502.0" y="340" font-family="Arial, sans-serif" font-size="12" font-weight="700" fill="#2f2416" text-anchor="middle">43%</text>
<rect x="566" y="324" width="104" height="24" rx="8" fill="#d49436"/>
<text x="618.0" y="340" font-family="Arial, sans-serif" font-size="12" font-weight="700" fill="#2f2416" text-anchor="middle">29%</text>
<rect x="682" y="324" width="104" height="24" rx="8" fill="#d49436"/>
<text x="734.0" y="340" font-family="Arial, sans-serif" font-size="12" font-weight="700" fill="#2f2416" text-anchor="middle">36%</text>
<rect x="32" y="354" width="764" height="30" rx="7" fill="#f9fafc"/>
<text x="44" y="372" font-family="Arial, sans-serif" font-size="12" fill="#263244">9. альтруизм</text>
<rect x="450" y="354" width="104" height="24" rx="8" fill="#1f7a4d"/>
<text x="502.0" y="370" font-family="Arial, sans-serif" font-size="12" font-weight="700" fill="#ffffff" text-anchor="middle">86%</text>
<rect x="566" y="354" width="104" height="24" rx="8" fill="#bf4d45"/>
<text x="618.0" y="370" font-family="Arial, sans-serif" font-size="12" font-weight="700" fill="#ffffff" text-anchor="middle">0%</text>
<rect x="682" y="354" width="104" height="24" rx="8" fill="#bf4d45"/>
<text x="734.0" y="370" font-family="Arial, sans-serif" font-size="12" font-weight="700" fill="#ffffff" text-anchor="middle">0%</text>
<text x="44" y="402" font-family="Arial, sans-serif" font-size="12" fill="#263244">10. сотрудничество</text>
<rect x="450" y="384" width="104" height="24" rx="8" fill="#bf4d45"/>
<text x="502.0" y="400" font-family="Arial, sans-serif" font-size="12" font-weight="700" fill="#ffffff" text-anchor="middle">7%</text>
<rect x="566" y="384" width="104" height="24" rx="8" fill="#1f7a4d"/>
<text x="618.0" y="400" font-family="Arial, sans-serif" font-size="12" font-weight="700" fill="#ffffff" text-anchor="middle">79%</text>
<rect x="682" y="384" width="104" height="24" rx="8" fill="#bf4d45"/>
<text x="734.0" y="400" font-family="Arial, sans-serif" font-size="12" font-weight="700" fill="#ffffff" text-anchor="middle">21%</text>
<rect x="32" y="414" width="764" height="30" rx="7" fill="#f9fafc"/>
<text x="44" y="432" font-family="Arial, sans-serif" font-size="12" fill="#263244">11. скромность</text>
<rect x="450" y="414" width="104" height="24" rx="8" fill="#bf4d45"/>
<text x="502.0" y="430" font-family="Arial, sans-serif" font-size="12" font-weight="700" fill="#ffffff" text-anchor="middle">0%</text>
<rect x="566" y="414" width="104" height="24" rx="8" fill="#d49436"/>
<text x="618.0" y="430" font-family="Arial, sans-serif" font-size="12" font-weight="700" fill="#2f2416" text-anchor="middle">36%</text>
<rect x="682" y="414" width="104" height="24" rx="8" fill="#72a84a"/>
<text x="734.0" y="430" font-family="Arial, sans-serif" font-size="12" font-weight="700" fill="#ffffff" text-anchor="middle">71%</text>
<text x="44" y="462" font-family="Arial, sans-serif" font-size="12" fill="#263244">12. сочувствие</text>
<rect x="450" y="444" width="104" height="24" rx="8" fill="#1f7a4d"/>
<text x="502.0" y="460" font-family="Arial, sans-serif" font-size="12" font-weight="700" fill="#ffffff" text-anchor="middle">79%</text>
<rect x="566" y="444" width="104" height="24" rx="8" fill="#d49436"/>
<text x="618.0" y="460" font-family="Arial, sans-serif" font-size="12" font-weight="700" fill="#2f2416" text-anchor="middle">29%</text>
<rect x="682" y="444" width="104" height="24" rx="8" fill="#bf4d45"/>
<text x="734.0" y="460" font-family="Arial, sans-serif" font-size="12" font-weight="700" fill="#ffffff" text-anchor="middle">21%</text>
<rect x="32" y="474" width="764" height="30" rx="7" fill="#f9fafc"/>
<text x="44" y="492" font-family="Arial, sans-serif" font-size="12" fill="#263244">13. самоэффективность</text>
<rect x="450" y="474" width="104" height="24" rx="8" fill="#d49436"/>
<text x="502.0" y="490" font-family="Arial, sans-serif" font-size="12" font-weight="700" fill="#2f2416" text-anchor="middle">29%</text>
<rect x="566" y="474" width="104" height="24" rx="8" fill="#d49436"/>
<text x="618.0" y="490" font-family="Arial, sans-serif" font-size="12" font-weight="700" fill="#2f2416" text-anchor="middle">29%</text>
<rect x="682" y="474" width="104" height="24" rx="8" fill="#72a84a"/>
<text x="734.0" y="490" font-family="Arial, sans-serif" font-size="12" font-weight="700" fill="#ffffff" text-anchor="middle">57%</text>
<text x="44" y="522" font-family="Arial, sans-serif" font-size="12" fill="#263244">14. аккуратность</text>
<rect x="450" y="504" width="104" height="24" rx="8" fill="#72a84a"/>
<text x="502.0" y="520" font-family="Arial, sans-serif" font-size="12" font-weight="700" fill="#ffffff" text-anchor="middle">50%</text>
<rect x="566" y="504" width="104" height="24" rx="8" fill="#d49436"/>
<text x="618.0" y="520" font-family="Arial, sans-serif" font-size="12" font-weight="700" fill="#2f2416" text-anchor="middle">43%</text>
<rect x="682" y="504" width="104" height="24" rx="8" fill="#bf4d45"/>
<text x="734.0" y="520" font-family="Arial, sans-serif" font-size="12" font-weight="700" fill="#ffffff" text-anchor="middle">21%</text>
<rect x="32" y="534" width="764" height="30" rx="7" fill="#f9fafc"/>
<text x="44" y="552" font-family="Arial, sans-serif" font-size="12" fill="#263244">15. исполнительность</text>
<rect x="450" y="534" width="104" height="24" rx="8" fill="#bf4d45"/>
<text x="502.0" y="550" font-family="Arial, sans-serif" font-size="12" font-weight="700" fill="#ffffff" text-anchor="middle">7%</text>
<rect x="566" y="534" width="104" height="24" rx="8" fill="#d49436"/>
<text x="618.0" y="550" font-family="Arial, sans-serif" font-size="12" font-weight="700" fill="#2f2416" text-anchor="middle">43%</text>
<rect x="682" y="534" width="104" height="24" rx="8" fill="#1f7a4d"/>
<text x="734.0" y="550" font-family="Arial, sans-serif" font-size="12" font-weight="700" fill="#ffffff" text-anchor="middle">100%</text>
<text x="44" y="582" font-family="Arial, sans-serif" font-size="12" fill="#263244">16. стремление к достижениям</text>
<rect x="450" y="564" width="104" height="24" rx="8" fill="#bf4d45"/>
<text x="502.0" y="580" font-family="Arial, sans-serif" font-size="12" font-weight="700" fill="#ffffff" text-anchor="middle">7%</text>
<rect x="566" y="564" width="104" height="24" rx="8" fill="#bf4d45"/>
<text x="618.0" y="580" font-family="Arial, sans-serif" font-size="12" font-weight="700" fill="#ffffff" text-anchor="middle">21%</text>
<rect x="682" y="564" width="104" height="24" rx="8" fill="#1f7a4d"/>
<text x="734.0" y="580" font-family="Arial, sans-serif" font-size="12" font-weight="700" fill="#ffffff" text-anchor="middle">79%</text>
<rect x="32" y="594" width="764" height="30" rx="7" fill="#f9fafc"/>
<text x="44" y="612" font-family="Arial, sans-serif" font-size="12" fill="#263244">17. самодисциплина</text>
<rect x="450" y="594" width="104" height="24" rx="8" fill="#bf4d45"/>
<text x="502.0" y="610" font-family="Arial, sans-serif" font-size="12" font-weight="700" fill="#ffffff" text-anchor="middle">7%</text>
<rect x="566" y="594" width="104" height="24" rx="8" fill="#bf4d45"/>
<text x="618.0" y="610" font-family="Arial, sans-serif" font-size="12" font-weight="700" fill="#ffffff" text-anchor="middle">21%</text>
<rect x="682" y="594" width="104" height="24" rx="8" fill="#1f7a4d"/>
<text x="734.0" y="610" font-family="Arial, sans-serif" font-size="12" font-weight="700" fill="#ffffff" text-anchor="middle">100%</text>
<text x="44" y="642" font-family="Arial, sans-serif" font-size="12" fill="#263244">18. осторожности</text>
<rect x="450" y="624" width="104" height="24" rx="8" fill="#1f7a4d"/>
<text x="502.0" y="640" font-family="Arial, sans-serif" font-size="12" font-weight="700" fill="#ffffff" text-anchor="middle">86%</text>
<rect x="566" y="624" width="104" height="24" rx="8" fill="#bf4d45"/>
<text x="618.0" y="640" font-family="Arial, sans-serif" font-size="12" font-weight="700" fill="#ffffff" text-anchor="middle">0%</text>
<rect x="682" y="624" width="104" height="24" rx="8" fill="#bf4d45"/>
<text x="734.0" y="640" font-family="Arial, sans-serif" font-size="12" font-weight="700" fill="#ffffff" text-anchor="middle">0%</text>
<rect x="32" y="654" width="764" height="30" rx="7" fill="#f9fafc"/>
<text x="44" y="672" font-family="Arial, sans-serif" font-size="12" fill="#263244">19. тревожности</text>
<rect x="450" y="654" width="104" height="24" rx="8" fill="#d49436"/>
<text x="502.0" y="670" font-family="Arial, sans-serif" font-size="12" font-weight="700" fill="#2f2416" text-anchor="middle">29%</text>
<rect x="566" y="654" width="104" height="24" rx="8" fill="#bf4d45"/>
<text x="618.0" y="670" font-family="Arial, sans-serif" font-size="12" font-weight="700" fill="#ffffff" text-anchor="middle">7%</text>
<rect x="682" y="654" width="104" height="24" rx="8" fill="#72a84a"/>
<text x="734.0" y="670" font-family="Arial, sans-serif" font-size="12" font-weight="700" fill="#ffffff" text-anchor="middle">64%</text>
<text x="44" y="702" font-family="Arial, sans-serif" font-size="12" fill="#263244">20. гневность</text>
<rect x="450" y="684" width="104" height="24" rx="8" fill="#d49436"/>
<text x="502.0" y="700" font-family="Arial, sans-serif" font-size="12" font-weight="700" fill="#2f2416" text-anchor="middle">29%</text>
<rect x="566" y="684" width="104" height="24" rx="8" fill="#d49436"/>
<text x="618.0" y="700" font-family="Arial, sans-serif" font-size="12" font-weight="700" fill="#2f2416" text-anchor="middle">43%</text>
<rect x="682" y="684" width="104" height="24" rx="8" fill="#d49436"/>
<text x="734.0" y="700" font-family="Arial, sans-serif" font-size="12" font-weight="700" fill="#2f2416" text-anchor="middle">36%</text>
<rect x="32" y="714" width="764" height="30" rx="7" fill="#f9fafc"/>
<text x="44" y="732" font-family="Arial, sans-serif" font-size="12" fill="#263244">21. подавленность</text>
<rect x="450" y="714" width="104" height="24" rx="8" fill="#72a84a"/>
<text x="502.0" y="730" font-family="Arial, sans-serif" font-size="12" font-weight="700" fill="#ffffff" text-anchor="middle">50%</text>
<rect x="566" y="714" width="104" height="24" rx="8" fill="#bf4d45"/>
<text x="618.0" y="730" font-family="Arial, sans-serif" font-size="12" font-weight="700" fill="#ffffff" text-anchor="middle">14%</text>
<rect x="682" y="714" width="104" height="24" rx="8" fill="#d49436"/>
<text x="734.0" y="730" font-family="Arial, sans-serif" font-size="12" font-weight="700" fill="#2f2416" text-anchor="middle">43%</text>
<text x="44" y="762" font-family="Arial, sans-serif" font-size="12" fill="#263244">22. чувствительность к оценке</text>
<rect x="450" y="744" width="104" height="24" rx="8" fill="#72a84a"/>
<text x="502.0" y="760" font-family="Arial, sans-serif" font-size="12" font-weight="700" fill="#ffffff" text-anchor="middle">71%</text>
<rect x="566" y="744" width="104" height="24" rx="8" fill="#bf4d45"/>
<text x="618.0" y="760" font-family="Arial, sans-serif" font-size="12" font-weight="700" fill="#ffffff" text-anchor="middle">7%</text>
<rect x="682" y="744" width="104" height="24" rx="8" fill="#d49436"/>
<text x="734.0" y="760" font-family="Arial, sans-serif" font-size="12" font-weight="700" fill="#2f2416" text-anchor="middle">36%</text>
<rect x="32" y="774" width="764" height="30" rx="7" fill="#f9fafc"/>
<text x="44" y="792" font-family="Arial, sans-serif" font-size="12" fill="#263244">23. неумеренность</text>
<rect x="450" y="774" width="104" height="24" rx="8" fill="#d49436"/>
<text x="502.0" y="790" font-family="Arial, sans-serif" font-size="12" font-weight="700" fill="#2f2416" text-anchor="middle">36%</text>
<rect x="566" y="774" width="104" height="24" rx="8" fill="#72a84a"/>
<text x="618.0" y="790" font-family="Arial, sans-serif" font-size="12" font-weight="700" fill="#ffffff" text-anchor="middle">50%</text>
<rect x="682" y="774" width="104" height="24" rx="8" fill="#bf4d45"/>
<text x="734.0" y="790" font-family="Arial, sans-serif" font-size="12" font-weight="700" fill="#ffffff" text-anchor="middle">21%</text>
<text x="44" y="822" font-family="Arial, sans-serif" font-size="12" fill="#263244">24. уязвимость</text>
<rect x="450" y="804" width="104" height="24" rx="8" fill="#d49436"/>
<text x="502.0" y="820" font-family="Arial, sans-serif" font-size="12" font-weight="700" fill="#2f2416" text-anchor="middle">36%</text>
<rect x="566" y="804" width="104" height="24" rx="8" fill="#72a84a"/>
<text x="618.0" y="820" font-family="Arial, sans-serif" font-size="12" font-weight="700" fill="#ffffff" text-anchor="middle">57%</text>
<rect x="682" y="804" width="104" height="24" rx="8" fill="#bf4d45"/>
<text x="734.0" y="820" font-family="Arial, sans-serif" font-size="12" font-weight="700" fill="#ffffff" text-anchor="middle">21%</text>
<rect x="32" y="834" width="764" height="30" rx="7" fill="#f9fafc"/>
<text x="44" y="852" font-family="Arial, sans-serif" font-size="12" fill="#263244">25. воображение</text>
<rect x="450" y="834" width="104" height="24" rx="8" fill="#1f7a4d"/>
<text x="502.0" y="850" font-family="Arial, sans-serif" font-size="12" font-weight="700" fill="#ffffff" text-anchor="middle">79%</text>
<rect x="566" y="834" width="104" height="24" rx="8" fill="#72a84a"/>
<text x="618.0" y="850" font-family="Arial, sans-serif" font-size="12" font-weight="700" fill="#ffffff" text-anchor="middle">71%</text>
<rect x="682" y="834" width="104" height="24" rx="8" fill="#1f7a4d"/>
<text x="734.0" y="850" font-family="Arial, sans-serif" font-size="12" font-weight="700" fill="#ffffff" text-anchor="middle">79%</text>
<text x="44" y="882" font-family="Arial, sans-serif" font-size="12" fill="#263244">26. художенственные интересы</text>
<rect x="450" y="864" width="104" height="24" rx="8" fill="#bf4d45"/>
<text x="502.0" y="880" font-family="Arial, sans-serif" font-size="12" font-weight="700" fill="#ffffff" text-anchor="middle">7%</text>
<rect x="566" y="864" width="104" height="24" rx="8" fill="#72a84a"/>
<text x="618.0" y="880" font-family="Arial, sans-serif" font-size="12" font-weight="700" fill="#ffffff" text-anchor="middle">64%</text>
<rect x="682" y="864" width="104" height="24" rx="8" fill="#d49436"/>
<text x="734.0" y="880" font-family="Arial, sans-serif" font-size="12" font-weight="700" fill="#2f2416" text-anchor="middle">29%</text>
<rect x="32" y="894" width="764" height="30" rx="7" fill="#f9fafc"/>
<text x="44" y="912" font-family="Arial, sans-serif" font-size="12" fill="#263244">27. эмоциональность</text>
<rect x="450" y="894" width="104" height="24" rx="8" fill="#72a84a"/>
<text x="502.0" y="910" font-family="Arial, sans-serif" font-size="12" font-weight="700" fill="#ffffff" text-anchor="middle">50%</text>
<rect x="566" y="894" width="104" height="24" rx="8" fill="#72a84a"/>
<text x="618.0" y="910" font-family="Arial, sans-serif" font-size="12" font-weight="700" fill="#ffffff" text-anchor="middle">64%</text>
<rect x="682" y="894" width="104" height="24" rx="8" fill="#bf4d45"/>
<text x="734.0" y="910" font-family="Arial, sans-serif" font-size="12" font-weight="700" fill="#ffffff" text-anchor="middle">0%</text>
<text x="44" y="942" font-family="Arial, sans-serif" font-size="12" fill="#263244">28. авантюризм</text>
<rect x="450" y="924" width="104" height="24" rx="8" fill="#bf4d45"/>
<text x="502.0" y="940" font-family="Arial, sans-serif" font-size="12" font-weight="700" fill="#ffffff" text-anchor="middle">0%</text>
<rect x="566" y="924" width="104" height="24" rx="8" fill="#bf4d45"/>
<text x="618.0" y="940" font-family="Arial, sans-serif" font-size="12" font-weight="700" fill="#ffffff" text-anchor="middle">14%</text>
<rect x="682" y="924" width="104" height="24" rx="8" fill="#1f7a4d"/>
<text x="734.0" y="940" font-family="Arial, sans-serif" font-size="12" font-weight="700" fill="#ffffff" text-anchor="middle">100%</text>
<rect x="32" y="954" width="764" height="30" rx="7" fill="#f9fafc"/>
<text x="44" y="972" font-family="Arial, sans-serif" font-size="12" fill="#263244">29. интеллектуальная любознательность</text>
<rect x="450" y="954" width="104" height="24" rx="8" fill="#1f7a4d"/>
<text x="502.0" y="970" font-family="Arial, sans-serif" font-size="12" font-weight="700" fill="#ffffff" text-anchor="middle">86%</text>
<rect x="566" y="954" width="104" height="24" rx="8" fill="#1f7a4d"/>
<text x="618.0" y="970" font-family="Arial, sans-serif" font-size="12" font-weight="700" fill="#ffffff" text-anchor="middle">86%</text>
<rect x="682" y="954" width="104" height="24" rx="8" fill="#1f7a4d"/>
<text x="734.0" y="970" font-family="Arial, sans-serif" font-size="12" font-weight="700" fill="#ffffff" text-anchor="middle">100%</text>
<text x="44" y="1002" font-family="Arial, sans-serif" font-size="12" fill="#263244">30. либерализм</text>
<rect x="450" y="984" width="104" height="24" rx="8" fill="#bf4d45"/>
<text x="502.0" y="1000" font-family="Arial, sans-serif" font-size="12" font-weight="700" fill="#ffffff" text-anchor="middle">0%</text>
<rect x="566" y="984" width="104" height="24" rx="8" fill="#d49436"/>
<text x="618.0" y="1000" font-family="Arial, sans-serif" font-size="12" font-weight="700" fill="#2f2416" text-anchor="middle">36%</text>
<rect x="682" y="984" width="104" height="24" rx="8" fill="#72a84a"/>
<text x="734.0" y="1000" font-family="Arial, sans-serif" font-size="12" font-weight="700" fill="#ffffff" text-anchor="middle">71%</text>
</svg>