<?xml version="1.0" encoding="UTF-8"?><svg xmlns="http://www.w3.org/2000/svg" xmlns:xlink="http://www.w3.org/1999/xlink" fill-opacity="1" color-rendering="auto" color-interpolation="auto" text-rendering="auto" stroke="black" stroke-linecap="square" width="1025" stroke-miterlimit="10" shape-rendering="auto" stroke-opacity="1" fill="black" stroke-dasharray="none" font-weight="normal" stroke-width="1" height="988" font-family="'Dialog'" font-style="normal" stroke-linejoin="miter" font-size="12px" stroke-dashoffset="0" image-rendering="auto">
  <!--Generated by ySVG 2.6-->
  <defs id="genericDefs"/>
  <g>
    <defs id="defs1">
      <clipPath clipPathUnits="userSpaceOnUse" id="clipPath1">
        <path d="M0 0 L1025 0 L1025 988 L0 988 L0 0 Z"/>
      </clipPath>
      <clipPath clipPathUnits="userSpaceOnUse" id="clipPath2">
        <path d="M-143 140 L882 140 L882 1128 L-143 1128 L-143 140 Z"/>
      </clipPath>
    </defs>
    <g fill="white" text-rendering="geometricPrecision" shape-rendering="geometricPrecision" transform="translate(143,-140)" stroke="white">
      <rect x="-143" width="1025" height="988" y="140" clip-path="url(#clipPath2)" stroke="none"/>
    </g>
    <g font-size="14px" stroke-linecap="butt" transform="matrix(1,0,0,1,143,-140)" text-rendering="geometricPrecision" font-family="'Arial'" shape-rendering="geometricPrecision" stroke-miterlimit="1.45">
      <text x="220.5786" xml:space="preserve" y="518.0332" clip-path="url(#clipPath2)" stroke="none">Выбрать правила,</text>
      <text x="228.5015" xml:space="preserve" y="533.6738" clip-path="url(#clipPath2)" stroke="none">связанные с d_i</text>
      <rect fill="none" x="130" width="300" height="62" y="490" clip-path="url(#clipPath2)"/>
      <text x="264.978" xml:space="preserve" y="602.2129" clip-path="url(#clipPath2)" stroke="none">Есть</text>
      <text x="236.5747" xml:space="preserve" y="617.8535" clip-path="url(#clipPath2)" stroke="none">сработавшие</text>
      <text x="248.9238" xml:space="preserve" y="633.4941" clip-path="url(#clipPath2)" stroke="none">правила?</text>
      <path fill="none" d="M130 613 L280 582 L430 613 L280 644 Z" fill-rule="evenodd" clip-path="url(#clipPath2)"/>
      <text x="-30.4552" xml:space="preserve" y="674.3758" clip-path="url(#clipPath2)" stroke="none">Вычислить силу</text>
      <text x="-49.8112" xml:space="preserve" y="690.0164" clip-path="url(#clipPath2)" stroke="none">срабатывания alpha_r</text>
      <rect fill="none" x="-127.9108" width="300" height="62" y="646.3426" clip-path="url(#clipPath2)"/>
      <text x="-50.7648" xml:space="preserve" y="766.3758" clip-path="url(#clipPath2)" stroke="none">Преобразовать термы</text>
      <text x="-47.5485" xml:space="preserve" y="782.0164" clip-path="url(#clipPath2)" stroke="none">влияния правил в k_r</text>
      <rect fill="none" x="-127.9108" width="300" height="62" y="738.3426" clip-path="url(#clipPath2)"/>
      <text x="-61.1418" xml:space="preserve" y="858.2301" clip-path="url(#clipPath2)" stroke="none">Агрегировать результаты</text>
      <text x="-31.6447" xml:space="preserve" y="873.8707" clip-path="url(#clipPath2)" stroke="none">и вычислить m_i</text>
      <rect fill="none" x="-127.9108" width="300" height="62" y="830.1969" clip-path="url(#clipPath2)"/>
      <text x="508.6397" xml:space="preserve" y="762.8242" clip-path="url(#clipPath2)" stroke="none">Принять</text>
      <text x="503.1026" xml:space="preserve" y="778.4648" clip-path="url(#clipPath2)" stroke="none">m_i = 1.00</text>
      <rect fill="none" x="385.9834" width="300" height="62" y="734.791" clip-path="url(#clipPath2)"/>
    </g>
    <g text-rendering="geometricPrecision" stroke-miterlimit="1.45" shape-rendering="geometricPrecision" transform="matrix(1,0,0,1,143,-140)" stroke-linecap="butt">
      <rect fill="none" x="130" width="300" height="62" y="306" clip-path="url(#clipPath2)"/>
      <path fill="none" d="M140 306 L140 368 M420 306 L420 368 M140 306 Z" clip-path="url(#clipPath2)"/>
      <text x="178.5854" font-size="14px" y="334.0469" clip-path="url(#clipPath2)" font-family="sans-serif" stroke="none" xml:space="preserve">Фаззифицировать численные</text>
      <text x="246.8901" font-size="14px" y="350.5352" clip-path="url(#clipPath2)" font-family="sans-serif" stroke="none" xml:space="preserve">признаки</text>
    </g>
    <g text-rendering="geometricPrecision" stroke-miterlimit="1.45" shape-rendering="geometricPrecision" transform="matrix(1,0,0,1,143,-140)" stroke-linecap="butt">
      <path fill="none" d="M140 398 L420 398 L430 408 L430 460 L130 460 L130 408 Z" clip-path="url(#clipPath2)"/>
      <text x="187.9951" font-size="14px" y="426.0469" clip-path="url(#clipPath2)" font-family="sans-serif" stroke="none" xml:space="preserve">Цикл по активированным </text>
      <text x="221.2383" font-size="14px" y="442.5352" clip-path="url(#clipPath2)" font-family="sans-serif" stroke="none" xml:space="preserve">д-сценариям d_i</text>
    </g>
    <g text-rendering="geometricPrecision" stroke-miterlimit="1.45" shape-rendering="geometricPrecision" transform="matrix(1,0,0,1,143,-140)" stroke-linecap="butt">
      <path fill="none" d="M130 958.7194 L430 958.7194 L430 1010.7194 L420 1020.7194 L140 1020.7194 L130 1010.7194 Z" clip-path="url(#clipPath2)"/>
      <text x="161.0513" font-size="14px" y="986.7663" clip-path="url(#clipPath2)" font-family="sans-serif" stroke="none" xml:space="preserve">Конец цикла по активированным </text>
      <text x="221.2383" font-size="14px" y="1003.2546" clip-path="url(#clipPath2)" font-family="sans-serif" stroke="none" xml:space="preserve">д-сценариям d_i</text>
    </g>
    <g text-rendering="geometricPrecision" stroke-miterlimit="1.45" shape-rendering="geometricPrecision" transform="matrix(1,0,0,1,143,-140)" stroke-linecap="butt">
      <path fill="none" d="M554.3276 155.6881 L510.0405 155.6881 L510.0405 334.3119 L554.3276 334.3119" clip-path="url(#clipPath2)"/>
      <text x="516.0405" font-size="14px" y="175.2233" clip-path="url(#clipPath2)" font-family="sans-serif" stroke="none" xml:space="preserve">Вход:</text>
      <text x="516.0405" font-size="14px" y="191.7116" clip-path="url(#clipPath2)" font-family="sans-serif" stroke="none" xml:space="preserve">A -- множество активированных д-сценариев</text>
      <text x="516.0405" font-size="14px" y="208.1999" clip-path="url(#clipPath2)" font-family="sans-serif" stroke="none" xml:space="preserve">P -- множесто термов персональных черт робота</text>
      <text x="516.0405" font-size="14px" y="224.6881" clip-path="url(#clipPath2)" font-family="sans-serif" stroke="none" xml:space="preserve">R -- множество параметров отношения</text>
      <text x="516.0405" font-size="14px" y="241.1764" clip-path="url(#clipPath2)" font-family="sans-serif" stroke="none" xml:space="preserve">робота к собеседнику</text>
      <text x="516.0405" font-size="14px" y="257.6647" clip-path="url(#clipPath2)" font-family="sans-serif" stroke="none" xml:space="preserve">S -- множество параметров ситуации</text>
      <text x="516.0405" font-size="14px" y="274.153" clip-path="url(#clipPath2)" font-family="sans-serif" stroke="none" xml:space="preserve">Правила переформирования набора сценариев</text>
      <text x="516.0405" font-size="14px" y="290.6413" clip-path="url(#clipPath2)" font-family="sans-serif" stroke="none" xml:space="preserve">Выход:</text>
      <text x="516.0405" font-size="14px" y="307.1295" clip-path="url(#clipPath2)" font-family="sans-serif" stroke="none" xml:space="preserve">Коэффициент  перевзвешивания m_i</text>
      <text x="516.0405" font-size="14px" y="323.6178" clip-path="url(#clipPath2)" font-family="sans-serif" stroke="none" xml:space="preserve">для каждого активированного д-сценария</text>
    </g>
    <g text-rendering="geometricPrecision" stroke-miterlimit="1.45" shape-rendering="geometricPrecision" transform="matrix(1,0,0,1,143,-140)" stroke-linecap="butt">
      <rect x="130" y="214" clip-path="url(#clipPath2)" fill="none" width="300" rx="31" ry="31" height="62"/>
      <text x="255.0454" font-size="14px" y="250.291" clip-path="url(#clipPath2)" font-family="sans-serif" stroke="none" xml:space="preserve">Начало</text>
    </g>
    <g text-rendering="geometricPrecision" stroke-miterlimit="1.45" shape-rendering="geometricPrecision" transform="matrix(1,0,0,1,143,-140)" stroke-linecap="butt">
      <rect x="130" y="1050.7194" clip-path="url(#clipPath2)" fill="none" width="300" rx="31" ry="31" height="62"/>
      <text x="258.354" font-size="14px" y="1087.0104" clip-path="url(#clipPath2)" font-family="sans-serif" stroke="none" xml:space="preserve">Конец</text>
    </g>
    <g text-rendering="geometricPrecision" stroke-miterlimit="1.45" shape-rendering="geometricPrecision" transform="matrix(1,0,0,1,143,-140)" stroke-linecap="butt">
      <path fill="none" d="M280 552 L280 573.9937" clip-path="url(#clipPath2)"/>
      <path d="M280 581.9937 L285 569.9937 L280 572.9937 L275 569.9937 Z" clip-path="url(#clipPath2)" stroke="none"/>
      <path fill="none" d="M129.9823 613 L22.0892 613 L22.0892 638.3426" clip-path="url(#clipPath2)"/>
      <path d="M22.0892 646.3426 L27.0892 634.3426 L22.0892 637.3426 L17.0892 634.3426 Z" clip-path="url(#clipPath2)" stroke="none"/>
      <text x="60.7145" xml:space="preserve" y="607.6983" clip-path="url(#clipPath2)" font-family="sans-serif" stroke="none">Да</text>
      <path fill="none" d="M22.0892 708.3426 L22.0892 730.3426" clip-path="url(#clipPath2)"/>
      <path d="M22.0892 738.3426 L27.0892 726.3426 L22.0892 729.3426 L17.0892 726.3426 Z" clip-path="url(#clipPath2)" stroke="none"/>
      <path fill="none" d="M22.0892 800.3426 L22.0892 822.1969" clip-path="url(#clipPath2)"/>
      <path d="M22.0892 830.1969 L27.0892 818.1969 L22.0892 821.1969 L17.0892 818.1969 Z" clip-path="url(#clipPath2)" stroke="none"/>
      <path fill="none" d="M430 613 L535.9834 613 L535.9834 726.7613" clip-path="url(#clipPath2)"/>
      <path d="M535.9834 734.7613 L540.9834 722.7613 L535.9834 725.7613 L530.9834 722.7613 Z" clip-path="url(#clipPath2)" stroke="none"/>
      <path fill="none" d="M280 368.041 L280 390.0145" clip-path="url(#clipPath2)"/>
      <path d="M280 398.0145 L285 386.0145 L280 389.0145 L275 386.0145 Z" clip-path="url(#clipPath2)" stroke="none"/>
      <path fill="none" d="M280 460.041 L280 482" clip-path="url(#clipPath2)"/>
      <path d="M280 490 L285 478 L280 481 L275 478 Z" clip-path="url(#clipPath2)" stroke="none"/>
      <path fill="none" d="M535.9834 796.791 L535.9834 924.0188 L280 924.0188 L280 950.6891" clip-path="url(#clipPath2)"/>
      <path d="M280 958.6891 L285 946.6891 L280 949.6891 L275 946.6891 Z" clip-path="url(#clipPath2)" stroke="none"/>
      <path fill="none" d="M22.0892 892.1969 L22.0892 924.0188 L280 924.0188 L280 950.6977" clip-path="url(#clipPath2)"/>
      <path d="M280 958.6977 L285 946.6977 L280 949.6977 L275 946.6977 Z" clip-path="url(#clipPath2)" stroke="none"/>
      <path fill="none" stroke-dasharray="6,2" d="M510.0876 245 L430.012 245" clip-path="url(#clipPath2)"/>
      <path fill="none" d="M280 276.041 L280 298.0145" clip-path="url(#clipPath2)"/>
      <path d="M280 306.0145 L285 294.0145 L280 297.0145 L275 294.0145 Z" clip-path="url(#clipPath2)" stroke="none"/>
      <path fill="none" d="M280 1020.7604 L280 1042.7339" clip-path="url(#clipPath2)"/>
      <path d="M280 1050.7339 L285 1038.7339 L280 1041.7339 L275 1038.7339 Z" clip-path="url(#clipPath2)" stroke="none"/>
    </g>
  </g>
</svg>
