<svg xmlns="http://www.w3.org/2000/svg" width="980" height="520" viewBox="0 0 980 520">
<rect x="0" y="0" width="980" height="520" fill="#ffffff"/>
<text x="36" y="38" font-family="Arial, sans-serif" font-size="20" font-weight="700" fill="#172033">Распределение ответов по числу респондентов, давших идентичный ответ</text>
<path d="M 282.0 284.0 L 282.0 124.0 A 160.0 160.0 0 0 1 404.5 181.1 Z" fill="#2f6f9f" stroke="#ffffff" stroke-width="3"/>
<text x="325.9311531574964" y="193.73413246432943" font-family="Arial, sans-serif" font-size="16" font-weight="700" fill="#ffffff" text-anchor="middle">14%</text>
<path d="M 282.0 284.0 L 404.5 181.1 A 160.0 160.0 0 0 1 316.6 440.2 Z" fill="#72a84a" stroke="#ffffff" stroke-width="3"/>
<text x="380.4863566726039" y="321.41313438390125" font-family="Arial, sans-serif" font-size="16" font-weight="700" fill="#ffffff" text-anchor="middle">33%</text>
<path d="M 282.0 284.0 L 316.6 440.2 A 160.0 160.0 0 0 1 234.9 436.9 Z" fill="#d49436" stroke="#ffffff" stroke-width="3"/>
<text x="277.8015828858213" y="391.91522166523714" font-family="Arial, sans-serif" font-size="16" font-weight="700" fill="#ffffff" text-anchor="middle">8%</text>
<path d="M 282.0 284.0 L 234.9 436.9 A 160.0 160.0 0 0 1 282.0 124.0 Z" fill="#bf4d45" stroke="#ffffff" stroke-width="3"/>
<text x="179.1586154419627" y="272.51937914081327" font-family="Arial, sans-serif" font-size="16" font-weight="700" fill="#ffffff" text-anchor="middle">45%</text>
<rect x="520" y="130" width="18" height="18" rx="4" fill="#2f6f9f"/>
<text x="550" y="145" font-family="Arial, sans-serif" font-size="16" font-weight="700" fill="#172033">Уникальные ответы: 54/389 (14%)</text>
<text x="550" y="167" font-family="Arial, sans-serif" font-size="12" fill="#667085">выбраны 1 респондентом</text>
<rect x="520" y="204" width="18" height="18" rx="4" fill="#72a84a"/>
<text x="550" y="219" font-family="Arial, sans-serif" font-size="16" font-weight="700" fill="#172033">Не менее 10 из 19: 127/389 (33%)</text>
<text x="550" y="241" font-family="Arial, sans-serif" font-size="12" fill="#667085">выбраны не менее чем 10 респондентами</text>
<rect x="520" y="278" width="18" height="18" rx="4" fill="#d49436"/>
<text x="550" y="293" font-family="Arial, sans-serif" font-size="16" font-weight="700" fill="#172033">2 респондента: 32/389 (8%)</text>
<text x="550" y="315" font-family="Arial, sans-serif" font-size="12" fill="#667085">выбраны двумя респондентами</text>
<rect x="520" y="352" width="18" height="18" rx="4" fill="#bf4d45"/>
<text x="550" y="367" font-family="Arial, sans-serif" font-size="16" font-weight="700" fill="#172033">3-9 респондентов: 176/389 (45%)</text>
<text x="550" y="389" font-family="Arial, sans-serif" font-size="12" fill="#667085">выбраны от 3 до 9 респондентами</text>
</svg>